<svg xmlns="http://www.w3.org/2000/svg" xmlns:xlink="http://www.w3.org/1999/xlink" viewBox="0 0 453.05 245.66"><defs><style>.cls-1{fill:gray;}.cls-2{fill:url(#radial-gradient);}.cls-3{fill:url(#radial-gradient-2);}.cls-4{fill:url(#radial-gradient-3);}.cls-5{fill:url(#radial-gradient-4);}.cls-6{fill:url(#radial-gradient-5);}.cls-7{fill:url(#radial-gradient-6);}.cls-8{fill:url(#radial-gradient-7);}.cls-9{fill:url(#radial-gradient-8);}.cls-10{fill:url(#linear-gradient);}.cls-11{fill:url(#linear-gradient-2);}.cls-12{fill:#9f0000;}.cls-13{fill:#404040;}.cls-14{fill:#dbdbdb;}.cls-15{fill:red;}.cls-16{fill:url(#linear-gradient-3);}.cls-17{fill:url(#linear-gradient-4);}.cls-18{fill:url(#linear-gradient-5);}.cls-19{fill:#202020;}.cls-20{fill:#fff;}.cls-21{fill:url(#radial-gradient-9);}.cls-22{fill:url(#linear-gradient-6);}.cls-23{fill:url(#linear-gradient-7);}.cls-24{fill:url(#linear-gradient-8);}.cls-25{fill:url(#linear-gradient-9);}.cls-26{fill:#494949;}.cls-27{fill:#b6b6b6;}.cls-28{fill:url(#linear-gradient-10);}.cls-29{fill:url(#linear-gradient-11);}.cls-30{fill:url(#linear-gradient-12);}.cls-31{fill:url(#radial-gradient-10);}.cls-32{fill:url(#radial-gradient-11);}.cls-33{fill:url(#linear-gradient-13);}.cls-34{fill:url(#linear-gradient-14);}.cls-35{fill:#ff747e;}.cls-36{fill:url(#linear-gradient-15);}.cls-37{fill:url(#linear-gradient-16);}.cls-38{fill:url(#linear-gradient-17);}.cls-39{fill:url(#linear-gradient-18);}.cls-40{fill:url(#linear-gradient-19);}.cls-41{fill:url(#linear-gradient-20);}.cls-42{fill:url(#radial-gradient-12);}.cls-43{fill:url(#linear-gradient-21);}.cls-44{fill:url(#radial-gradient-13);}.cls-45{fill:url(#linear-gradient-22);}.cls-46{fill:url(#radial-gradient-14);}.cls-47{fill:url(#linear-gradient-23);}.cls-48{fill:url(#radial-gradient-15);}.cls-49{fill:#d5d5d5;}.cls-50{fill:#909090;}.cls-51{fill:url(#linear-gradient-24);}.cls-52{fill:#252525;}.cls-53{fill:#1f1f1f;}.cls-54{fill:#bfbfbf;}.cls-55{fill:url(#linear-gradient-25);}</style><radialGradient id="radial-gradient" cx="-6622.62" cy="-2830.17" r="91.33" gradientTransform="matrix(0, 0.38, 0.38, 0, 1184.48, 2563.91)" gradientUnits="userSpaceOnUse"><stop offset="0" stop-color="#515151"/><stop offset="1" stop-color="#202020"/></radialGradient><radialGradient id="radial-gradient-2" cx="-6622.61" cy="-2830.17" r="91.33" gradientTransform="matrix(0, 0.38, 0.38, 0, 1184.48, 2563.91)" gradientUnits="userSpaceOnUse"><stop offset="0" stop-color="gray"/><stop offset="1" stop-color="#202020"/></radialGradient><radialGradient id="radial-gradient-3" cx="-6622.61" cy="-2192.17" r="67.33" xlink:href="#radial-gradient"/><radialGradient id="radial-gradient-4" cx="-6620.26" cy="-2192.05" r="63.6" xlink:href="#radial-gradient-2"/><radialGradient id="radial-gradient-5" cx="3092.49" cy="-2830.17" r="91.33" gradientTransform="translate(1184.48 1393.44) rotate(-90) scale(0.38)" xlink:href="#radial-gradient"/><radialGradient id="radial-gradient-6" cx="3092.49" cy="-2830.17" r="91.33" gradientTransform="translate(1184.48 1393.44) rotate(-90) scale(0.38)" xlink:href="#radial-gradient-2"/><radialGradient id="radial-gradient-7" cx="3092.49" cy="-2192.17" r="67.33" gradientTransform="translate(1184.48 1393.44) rotate(-90) scale(0.38)" xlink:href="#radial-gradient"/><radialGradient id="radial-gradient-8" cx="3094.85" cy="-2192.05" r="63.6" gradientTransform="translate(1184.48 1393.44) rotate(-90) scale(0.38)" xlink:href="#radial-gradient-2"/><linearGradient id="linear-gradient" x1="229.38" y1="72.85" x2="229.38" y2="-89.79" gradientTransform="translate(105.82 353.23) rotate(-90)" gradientUnits="userSpaceOnUse"><stop offset="0" stop-color="#fff"/><stop offset="1" stop-color="red"/></linearGradient><linearGradient id="linear-gradient-2" x1="229.25" y1="56.81" x2="229.25" y2="-41.7" xlink:href="#linear-gradient"/><linearGradient id="linear-gradient-3" x1="289.46" y1="266.32" x2="307.79" y2="268.61" gradientTransform="translate(105.82 353.23) rotate(-90)" gradientUnits="userSpaceOnUse"><stop offset="0" stop-color="gray"/><stop offset="1"/></linearGradient><linearGradient id="linear-gradient-4" x1="171.25" y1="268.21" x2="147.19" y2="268.21" xlink:href="#linear-gradient-3"/><linearGradient id="linear-gradient-5" x1="229.42" y1="117.52" x2="229.42" y2="-48.01" xlink:href="#linear-gradient-3"/><radialGradient id="radial-gradient-9" cx="690.22" cy="-2317.87" r="89.28" gradientTransform="translate(1192.13 726.81) rotate(-90) scale(0.87 0.46)" xlink:href="#radial-gradient-2"/><linearGradient id="linear-gradient-6" x1="229.25" y1="120.96" x2="229.25" y2="270.44" gradientTransform="translate(105.82 353.23) rotate(-90)" gradientUnits="userSpaceOnUse"><stop offset="0" stop-color="#202020"/><stop offset="1" stop-color="gray"/></linearGradient><linearGradient id="linear-gradient-7" x1="228.73" y1="274.42" x2="228.73" y2="296.57" gradientTransform="translate(105.82 353.23) rotate(-90)" gradientUnits="userSpaceOnUse"><stop offset="0" stop-color="#fff"/><stop offset="1" stop-color="gray"/></linearGradient><linearGradient id="linear-gradient-8" x1="175.26" y1="182.88" x2="162.08" y2="182.88" xlink:href="#linear-gradient-7"/><linearGradient id="linear-gradient-9" x1="280.07" y1="182.46" x2="295.53" y2="182.46" xlink:href="#linear-gradient-7"/><linearGradient id="linear-gradient-10" x1="168" y1="293.52" x2="158.58" y2="294.54" xlink:href="#linear-gradient-7"/><linearGradient id="linear-gradient-11" x1="289.41" y1="293.54" x2="302.14" y2="294.05" xlink:href="#linear-gradient-7"/><linearGradient id="linear-gradient-12" x1="229.09" y1="319.1" x2="229.09" y2="306.69" xlink:href="#linear-gradient-7"/><radialGradient id="radial-gradient-10" cx="3200.74" cy="-2353.17" r="135.8" gradientTransform="translate(1184.48 1393.44) rotate(-90) scale(0.38)" gradientUnits="userSpaceOnUse"><stop offset="0" stop-color="#a0a0a0"/><stop offset="1" stop-color="#f4f3f3"/></radialGradient><radialGradient id="radial-gradient-11" cx="-6042.37" cy="-2353.17" r="135.8" gradientTransform="matrix(0, 0.38, 0.38, 0, 1184.48, 2383.81)" xlink:href="#radial-gradient-10"/><linearGradient id="linear-gradient-13" x1="229.38" y1="139.76" x2="229.38" y2="126.01" xlink:href="#linear-gradient-7"/><linearGradient id="linear-gradient-14" x1="229" y1="67.84" x2="229" y2="88.46" xlink:href="#linear-gradient-7"/><linearGradient id="linear-gradient-15" x1="-3356.96" y1="-128.42" x2="-3356.96" y2="102.11" gradientTransform="matrix(0, 1, 1, 0, 105.82, 3418.68)" gradientUnits="userSpaceOnUse"><stop offset="0" stop-color="#fff"/><stop offset="1" stop-color="#ff444c"/></linearGradient><linearGradient id="linear-gradient-16" x1="-3361.82" y1="-38.69" x2="-3361.82" y2="64.41" xlink:href="#linear-gradient-15"/><linearGradient id="linear-gradient-17" x1="166.49" y1="-128.42" x2="166.49" y2="102.11" gradientTransform="translate(105.82 353.23) rotate(-90)" xlink:href="#linear-gradient-15"/><linearGradient id="linear-gradient-18" x1="161.62" y1="-38.69" x2="161.62" y2="64.41" gradientTransform="translate(105.82 353.23) rotate(-90)" xlink:href="#linear-gradient-15"/><linearGradient id="linear-gradient-19" x1="228.97" y1="-7.76" x2="228.97" y2="-81.08" xlink:href="#linear-gradient"/><linearGradient id="linear-gradient-20" x1="263.28" y1="-80.69" x2="263.28" y2="-24.56" gradientTransform="translate(105.82 353.23) rotate(-90)" xlink:href="#linear-gradient-15"/><radialGradient id="radial-gradient-12" cx="-6222.2" cy="-2984.55" r="14.09" gradientTransform="matrix(0, 0.38, 0.38, 0, 1184.48, 2470.2)" gradientUnits="userSpaceOnUse"><stop offset="0.01" stop-color="#e8e8e8"/><stop offset="0.22" stop-color="#e5e5e5"/><stop offset="0.4" stop-color="#dadada"/><stop offset="0.57" stop-color="#c8c8c8"/><stop offset="0.73" stop-color="#aeaeae"/><stop offset="0.89" stop-color="#8e8e8e"/><stop offset="0.99" stop-color="#757575"/></radialGradient><linearGradient id="linear-gradient-21" x1="243.71" y1="-80.7" x2="243.71" y2="-24.56" gradientTransform="translate(105.82 353.23) rotate(-90)" xlink:href="#linear-gradient-15"/><radialGradient id="radial-gradient-13" cx="-6171.45" cy="-2989.58" r="13.27" xlink:href="#radial-gradient-12"/><linearGradient id="linear-gradient-22" x1="203.37" y1="-80.7" x2="203.37" y2="-24.56" gradientTransform="translate(105.82 353.23) rotate(-90)" xlink:href="#linear-gradient-15"/><radialGradient id="radial-gradient-14" cx="3245.24" cy="-2984.55" r="14.09" gradientTransform="translate(1184.48 1393.44) rotate(-90) scale(0.38)" xlink:href="#radial-gradient-12"/><linearGradient id="linear-gradient-23" x1="223.22" y1="-80.7" x2="223.22" y2="-24.56" gradientTransform="translate(105.82 353.23) rotate(-90)" xlink:href="#linear-gradient-15"/><radialGradient id="radial-gradient-15" cx="3295.99" cy="-2989.58" r="13.27" gradientTransform="translate(1184.48 1393.44) rotate(-90) scale(0.38)" xlink:href="#radial-gradient-12"/><linearGradient id="linear-gradient-24" x1="189.5" y1="-30.48" x2="189.5" y2="-7.38" gradientTransform="translate(105.82 353.23) rotate(-90)" xlink:href="#linear-gradient-15"/><linearGradient id="linear-gradient-25" x1="-2843.52" y1="-30.48" x2="-2843.52" y2="-7.38" gradientTransform="matrix(0, 1, 1, 0, 105.82, 2927.79)" xlink:href="#linear-gradient-15"/></defs><g id="Car_4_A"><path d="M186.66,225.75h0Zm-.74.53ZM171.82,24.49a20.16,20.16,0,0,0-6.14,9c-8.36-.62-14.75-1.48-18.56-2.53l-.25-.05c-2.72-2.22-9-4.61-23.48-4.61-11.22,0-37.78.31-42.17,3.15a21,21,0,0,0-2.93,2.38A93.27,93.27,0,0,0,46.91,55.28C38.65,64.78,34.47,72.42,34.47,78a7.65,7.65,0,0,0,4.6,7.44c0,.45-.06.89-.07,1.32v.07a1.62,1.62,0,0,0,0,.31l0,.13a139.73,139.73,0,0,0-4.13,21,133.2,133.2,0,0,0-1,15.92v.06a132.65,132.65,0,0,0,1,15.91A141.66,141.66,0,0,0,39,161.13c0,.35,0,.71.07,1.07a7.67,7.67,0,0,0-4.6,7.44c0,5.58,4.18,13.22,12.44,22.71a93.27,93.27,0,0,0,31.38,23.47,21,21,0,0,0,2.93,2.38c4.4,2.85,31,3.15,42.17,3.15,14.46,0,20.76-2.39,23.48-4.6a1.83,1.83,0,0,0,.25-.06c3.82-1.05,10.23-1.92,18.63-2.53a20.47,20.47,0,0,0,6.07,8.77c3.66,3.13,7.86,4.54,11.87,4a5.45,5.45,0,0,0,.79-.09l.33-.08a4.85,4.85,0,0,0,.78-.3,2.55,2.55,0,0,0,.33-.17l.15-.09.25-.17,0,0,.09-.06.2-.17.08-.07.05,0,.07-.06.21-.21.06-.06,0-.06c.11-.13.22-.26.33-.41a2.74,2.74,0,0,0,.51-1.59,2.78,2.78,0,0,0-.06-.58c-.12-.54-1-4.62-2.61-9.26,9.25-.06,27.3-.16,45.9-.15a23.07,23.07,0,0,0,9.48,0c32.83.09,42.74.55,45.27.92,10.57,1.55,18.46.83,21.14.23.6-.1,3.35.15,9.89,1.7,1,1,1.65,1.57,1.68,1.6a2.2,2.2,0,0,0,1.17.55c25.37,3.47,56.08-.84,57.37-1a11.78,11.78,0,0,0,6.66-3.68c6.29-1.91,20-10.52,24.83-17.32a2.44,2.44,0,0,0,.24-.41l1.94-2.53.36-.16.07,0,.41-.2.23-.13.07,0h0l.46-.27.13-.09a11.85,11.85,0,0,0,1.79-1.51l0,0,.06,0,0,0,.49-.55,0-.06.08-.1c.15-.18.31-.38.45-.57l.13-.17.42-.62.11-.17c.15-.23.29-.47.43-.7l.07-.12a24.43,24.43,0,0,0,1.33-2.66c2.82-6.5,7-30.3,7-60.74V124h0c0-30.43-4.21-54.23-7-60.73-.35-.82-.74-1.6-1.16-2.37a16.78,16.78,0,0,0-2.43-3.38l0,0-.07-.07c-.15-.16-.3-.31-.47-.46l-.16-.15-.47-.4-.16-.11,0,0c-.15-.12-.31-.23-.48-.35l0,0-.07,0-.05,0h0l-.72-.42-3.1-4,.07,0c-4.85-6.8-18.54-15.41-24.83-17.31a11.72,11.72,0,0,0-6.66-3.69c-1.29-.18-32-4.49-57.37-1a2.14,2.14,0,0,0-1.17.56s-.7.64-1.68,1.59c-6.54,1.55-9.29,1.8-9.88,1.7-2.69-.59-10.58-1.32-21.15.23-2.52.37-12.4.83-45.06.92a22.68,22.68,0,0,0-10,0c-18.95,0-37.33-.09-45.72-.15A98.33,98.33,0,0,0,188,24.74a2.88,2.88,0,0,0,.06-.59,2.68,2.68,0,0,0-.52-1.59,3.3,3.3,0,0,0-.32-.4l0-.07-.05,0-.2-.21-.11-.09,0-.05h0l-.05,0-.23-.19-.07,0,0,0-.27-.18-.14-.08h0c-.09-.06-.2-.11-.29-.16a4.83,4.83,0,0,0-.77-.29l-.36-.09a4.56,4.56,0,0,0-.8-.1C179.69,19.94,175.48,21.36,171.82,24.49Z"/><path class="cls-1" d="M81.64,32.77s-.52.19-1.46.58A90.57,90.57,0,0,0,48.54,56.7C33.27,74.27,34.8,82.41,41.42,83.94S76,62.3,76,62.3L82.65,43Z"/><path class="cls-2" d="M146.55,33.79s-1.78-5.35-23.16-5.35-38.27,1-41,2.8c-4.33,2.8-12.47,13-11.46,16.81S88,53.9,88.76,53.9s47.61-2.8,47.61-2.8l16.29-7.38Z"/><path class="cls-3" d="M150.45,43l-5.2-8.45c-.09-.15-.11-.13-.14-.26-.34-.49-3.63-4.36-21.72-4.36-23.77,0-38.2,1.29-40.16,2.56-4,2.6-10.85,11.43-10.85,14.79a1.41,1.41,0,0,0,0,.33s.6,1.55,7.71,3.23a71.63,71.63,0,0,0,8.64,1.49c1.39,0,31.26-1.82,47.22-2.78L150.45,43Z"/><path class="cls-1" d="M319.91,33s-11,2.8-13.24,2.29-9.93-1.28-20.36.25-106.41.77-106.41.77-23.17-.51-33.35-3.31c0,0-7.13-1-4.84,2.8a42.53,42.53,0,0,0,6.88,7.89l12.22,1.78L299,47l18.83-3.31Z"/><path class="cls-4" d="M382.79,36.08a9.94,9.94,0,0,0-5.86-3.56c-3.56-.51-32.58-4.33-56.76-1,0,0-9.68,8.91-9.68,11.45S324,52.63,324,52.63s37.43,1.78,38.7,1,22.91-4.33,22.91-4.33,3.05-4.33,3.05-5.09S382.79,36.08,382.79,36.08Z"/><path class="cls-5" d="M387,44.3c-.73-1.2-3.23-4.52-5.41-7.27a8.46,8.46,0,0,0-4.87-3c-1.27-.18-31.12-4.36-55.87-1.08-4.49,4.17-8.38,8.57-8.8,9.92.76,1.33,6.26,5,12.35,8.25,13.63.65,35.57,1.5,37.77,1.09,2.17-.82,13.17-2.75,22.53-4.29A40.42,40.42,0,0,0,387,44.3Z"/><path class="cls-1" d="M386.73,45s-7.25-6.11-6.11-8.78,20.62,8.4,26.35,16.42l-6.87,4.2Z"/><path class="cls-1" d="M81.64,214.86s-.52-.18-1.46-.58a90.43,90.43,0,0,1-31.64-23.35c-15.27-17.56-13.74-25.71-7.12-27.24S76,185.33,76,185.33l6.61,19.35Z"/><path class="cls-6" d="M146.55,213.84s-1.78,5.35-23.16,5.35-38.27-1-41-2.8c-4.33-2.8-12.47-13-11.46-16.8s17.06-5.86,17.82-5.86,47.61,2.8,47.61,2.8l16.29,7.38Z"/><path class="cls-7" d="M150.45,204.59l-5.2,8.45c-.09.15-.11.13-.14.26-.34.49-3.63,4.36-21.72,4.36-23.77,0-38.2-1.29-40.16-2.55-4-2.61-10.85-11.44-10.85-14.8a1.49,1.49,0,0,1,0-.33s.6-1.55,7.71-3.23a76.29,76.29,0,0,1,8.64-1.49c1.39.05,31.26,1.82,47.22,2.78l14.46,6.55Z"/><path class="cls-1" d="M319.91,214.61s-11-2.81-13.24-2.3-9.93,1.28-20.36-.25-106.41-.76-106.41-.76-23.17.5-33.35,3.31c0,0-7.13,1-4.84-2.8a42.75,42.75,0,0,1,6.88-7.9l12.22-1.78L299,200.6l18.83,3.31Z"/><path class="cls-8" d="M382.79,211.55a9.89,9.89,0,0,1-5.86,3.56c-3.56.51-32.58,4.33-56.76,1,0,0-9.68-8.91-9.68-11.45S324,195,324,195s37.43-1.78,38.7-1,22.91,4.32,22.91,4.32,3.05,4.33,3.05,5.09S382.79,211.55,382.79,211.55Z"/><path class="cls-9" d="M387,203.33c-.73,1.21-3.23,4.52-5.41,7.27a8.46,8.46,0,0,1-4.87,3c-1.27.18-31.12,4.37-55.87,1.08-4.49-4.17-8.38-8.56-8.8-9.92.76-1.33,6.26-5,12.35-8.25,13.63-.64,35.57-1.49,37.77-1.09,2.17.83,13.17,2.75,22.53,4.29a41.91,41.91,0,0,1,2.3,3.62Z"/><path class="cls-1" d="M386.73,202.64s-7.25,6.11-6.11,8.78S401.24,203,407,195l-6.87-4.2Z"/><path class="cls-10" d="M96.66,55,64.33,51.81s-22.66,17.44-23.17,35L46,119.14l2.85,4.71L46,128.56l-4.84,32.33c.51,17.57,23.17,35.39,23.17,35.39l32.33-3.57,43.53,5.09,6.87-5.85-10.18-50.41L123,123.85l13.85-17.69,10.18-50.4-6.87-5.86Z"/><path class="cls-11" d="M118.87,103.17,79.15,106.8l-16.8.19s-7.06,6.87-7.63,8A54.9,54.9,0,0,0,53,121.5l.31,2.48L53,126.46A54.9,54.9,0,0,0,54.72,133c.57,1.15,7.63,8,7.63,8l16.8.19,39.72,3.63-.2-7.45s-17.18.2-38.75-1.91S59.11,124,59.11,124s-.77-9.36,20.81-11.46,38.75-1.91,38.75-1.91Z"/><path class="cls-12" d="M53.89,175.4S47,170.82,43.45,164.46a27.09,27.09,0,0,0,8.91,12.72C59.49,183,53.89,175.4,53.89,175.4Z"/><path class="cls-13" d="M246,40.93c1.12-2-1.15-2.1-2.45-2.13-.93-4-14-3.6-17.75.25-1.43,1.46-.06,2.8,1.68,2.64,1.53-.14,3-1.39,4.39-1.92,2.56-1,5.6-1.49,8,.24a8.09,8.09,0,0,1,1.92,2.25Z"/><path class="cls-14" d="M229.79,40c1.4-.44,3.31-2,6.69-1.84a7.39,7.39,0,0,1,5,2.1l3.89.25s.44-1.27-2-1.21c0,0-1.26-2.74-6.55-2.86-5.79-.13-9.23,1.27-10.63,3.63Z"/><path class="cls-15" d="M410.41,57.15l-3.82-5s-22.15-12.6-42-12.6-44.68,1.14-66.83,1.53-56.51-.39-76.75-.39-71,1.53-71,1.53l1.14,12.6,31.7,13.37,156.94,7.63Z"/><path class="cls-12" d="M302.35,43.41c-15.26,0-81.59-1.53-152.15,1.14L150,42.26s50.78-1.53,71-1.53,54.61.77,76.75.39c13.84-.24,28.73-.78,42.79-1.15l-.4,2.29S317.62,43.41,302.35,43.41Z"/><path class="cls-16" d="M406.59,52.19l3.82,5-43.1,11.42L344.73,53.34s-2.45-8.27-7.08-13.29c9.48-.26,18.64-.46,26.94-.46C384.44,39.59,406.59,52.19,406.59,52.19Z"/><polygon points="318.19 43.03 324.11 43.79 330.03 47.03 320.48 45.51 318.19 43.03"/><path class="cls-14" d="M155.21,50.54s-4.33-5.1-5.6-8.15c0,0-9.42-3.31-17.82-1.53-5.38,1.14,3.56,11,3.56,11l8.4,4.58Z"/><path class="cls-1" d="M153.42,50.54l-5.09-7.13s-7.12-2.8-11.45-2c0,0,9.16,4.07,10.69,9.42C148.5,54.06,153.42,50.54,153.42,50.54Z"/><path class="cls-14" d="M147.13,47.75c.56-.69,0-2.09-1.27-3.12s-2.76-1.3-3.33-.61,0,2.1,1.28,3.13S146.57,48.45,147.13,47.75Z"/><path class="cls-13" d="M246,206.65c1.12,2-1.15,2.1-2.45,2.13-.93,4-14,3.6-17.75-.26-1.43-1.46-.06-2.79,1.68-2.63,1.53.13,3,1.38,4.39,1.91,2.56,1,5.6,1.49,8-.24a8,8,0,0,0,1.92-2.25Z"/><path class="cls-14" d="M229.79,207.54c1.4.45,3.31,2,6.69,1.85a7.39,7.39,0,0,0,5-2.1l3.89-.26s.44,1.27-2,1.21c0,0-1.26,2.75-6.55,2.86-5.79.13-9.23-1.27-10.63-3.62Z"/><path class="cls-15" d="M410.41,190.42l-3.82,5s-22.15,12.6-42,12.6-44.68-1.15-66.83-1.53-56.51.38-76.75.38-71-1.53-71-1.53l1.14-12.6,31.7-13.36,156.94-7.64Z"/><path class="cls-12" d="M302.35,204.17c-15.26,0-81.59,1.52-152.15-1.14l-.21,2.28s50.78,1.53,71,1.53,54.61-.76,76.75-.38c13.84.24,28.73.77,42.79,1.14l-.4-2.29S317.62,204.17,302.35,204.17Z"/><path class="cls-17" d="M406.59,195.39l3.82-5L367.31,179l-22.58,15.23s-2.45,8.27-7.08,13.29c9.48.26,18.64.46,26.94.46C384.44,208,406.59,195.39,406.59,195.39Z"/><polygon points="318.19 204.55 324.11 203.79 330.03 200.54 320.48 202.07 318.19 204.55"/><path class="cls-14" d="M155.21,197s-4.33,5.09-5.6,8.15c0,0-9.42,3.31-17.82,1.52-5.38-1.14,3.56-10.94,3.56-10.94l8.4-4.58Z"/><path class="cls-1" d="M153.42,197l-5.09,7.13s-7.12,2.8-11.45,2c0,0,9.16-4.07,10.69-9.41C148.5,193.52,153.42,197,153.42,197Z"/><path class="cls-14" d="M147.13,199.82c.56.7,0,2.1-1.27,3.13s-2.76,1.3-3.33.6,0-2.1,1.28-3.13S146.57,199.12,147.13,199.82Z"/><path class="cls-18" d="M145,50.7c-30.16,23.68-29.4,72.56-29.4,72.56v1.1s-.76,48.88,29.4,72.55c0,0,100,14.51,240.4-4.81L402,166.52,399.17,135l-41.78-11.21,41.78-11.21L402,81.1,385.42,55.52C245.07,36.19,145,50.7,145,50.7Z"/><path d="M145.4,51.43l-.91-.29c-29.62,23.83-28.87,72.12-28.87,72.12v1.1s-.76,48.88,29.4,72.55h0c-3.33-3.43-27.88-30.19-27.88-72.55C117.15,78.92,145.4,51.43,145.4,51.43Z"/><path d="M164.59,43.91a.57.57,0,0,1-.16-.38.54.54,0,0,1,.12-.34L168,38.93a5.36,5.36,0,0,1-.28-.52,4.5,4.5,0,0,1-.38-1.9c0-3.15,2.41-7.42,5.88-10.38,3.22-2.76,6.87-4,10.29-3.48a2.69,2.69,0,0,1,.53.06l.18,0a2.46,2.46,0,0,1,.44.17l.16.09.08,0,.16.1.07.06.13.1,0,0,0,.05.14.14.06.06.2.24a.63.63,0,0,1,.1.32.49.49,0,0,1,0,.12c-.12.51-2.82,12.65-7.09,18.9l-.16,2.4a.54.54,0,0,1-.43.5C177.77,46.15,168.57,48,164.59,43.91Z"/><path class="cls-19" d="M178.24,42.67l-.19,2.87s-9.26,1.9-13.07-2L168.7,39Z"/><path class="cls-20" d="M185.31,24.15s-2.77,12.6-7.07,18.81c0,0-7.92-.29-10-4.78s6.11-16.41,15.27-15A2.15,2.15,0,0,1,185.31,24.15Z"/><path d="M185.31,24.15s-2.77,12.6-7.07,18.81c0,0-.55,0-1.4-.13a79.85,79.85,0,0,1,7.1-19.59A2.2,2.2,0,0,1,185.31,24.15Z"/><path d="M164.59,203.5a.57.57,0,0,0-.16.38.54.54,0,0,0,.12.34l3.46,4.26a5.36,5.36,0,0,0-.28.52,4.5,4.5,0,0,0-.38,1.9c0,3.15,2.41,7.42,5.88,10.38,3.22,2.76,6.87,4,10.29,3.48a3.4,3.4,0,0,0,.53,0l.18-.05a2.46,2.46,0,0,0,.44-.17l.16-.08.08,0,.16-.1.07-.06.13-.1,0,0,0,0,.14-.15.06-.06a2.54,2.54,0,0,0,.2-.24.6.6,0,0,0,.1-.32.49.49,0,0,0,0-.12c-.12-.51-2.82-12.65-7.09-18.9l-.16-2.4a.53.53,0,0,0-.43-.49C177.77,201.27,168.57,199.42,164.59,203.5Z"/><path class="cls-19" d="M178.24,204.74l-.19-2.86s-9.26-1.91-13.07,2l3.72,4.58Z"/><path class="cls-20" d="M185.31,223.26s-2.77-12.6-7.07-18.81c0,0-7.92.29-10,4.78s6.11,16.42,15.27,15A2.18,2.18,0,0,0,185.31,223.26Z"/><path d="M185.31,223.26s-2.77-12.6-7.07-18.81c0,0-.55,0-1.4.14a80.21,80.21,0,0,0,7.1,19.59A2.27,2.27,0,0,0,185.31,223.26Z"/><path class="cls-19" d="M156.48,51.05S127,73,126.7,123.59h0c0,.13,0,.25,0,.38s0,.25,0,.38h0c.3,50.62,29.78,72.55,29.78,72.55s25.2,2.68,98.13,2.68,130.21-9.17,130.21-9.17,11.46-13.36,12.22-14.51,5.73-29,5.73-29L383.27,124l19.5-22.91s-5-27.88-5.73-29-12.22-14.51-12.22-14.51-57.27-9.17-130.21-9.17S156.48,51.05,156.48,51.05Z"/><path d="M397,175.91c.77-1.14,5.73-29,5.73-29L383.27,124l19.5-22.91s-5-27.88-5.73-29-12.22-14.51-12.22-14.51-16.11-2.58-42.12-5L339.77,182l2.56,13.43c26.23-2.43,42.49-5,42.49-5S396.28,177.06,397,175.91Z"/><path class="cls-21" d="M151.07,56.1c-8.53,9.08-24.15,30.71-24.37,67.49h0c0,.13,0,.25,0,.38s0,.25,0,.38h0c.22,36.61,15.69,58.21,24.24,67.37,12.4-13.39,20.76-38.77,20.76-67.88S163.39,69.53,151.07,56.1Z"/><path class="cls-22" d="M214.17,48.69V199.27c11.45.19,24.85.32,40.44.32,33.5,0,63.69-1.94,86.55-4-1.25-4.48-2.7-10.63-2.7-11.86,0-1.72.57-118.56.57-118.56l3.24-12.64c-23-2.13-53.61-4.13-87.66-4.13C239,48.37,225.62,48.5,214.17,48.69Z"/><path class="cls-1" d="M333.27,184.31s4.54,5.39,4.82,11.53l6.55-.6c-1-4.12-3.47-13-6.4-13.6A4.22,4.22,0,0,0,333.27,184.31Zm-181,8.82a40.76,40.76,0,0,0,4.18,3.78s3.24.35,10.77.79c7.68-1.56,25.17-5.58,38.49-12.24,17.56-8.79,18.33-18.33,18.33-18.33l-27.5,15.65S169,192.42,152.3,193.13ZM260.72,182c-3.31,7.47-11.83,14.33-16.28,17.55l10.17,0h2.2a64.45,64.45,0,0,0,10-16S265.31,171.71,260.72,182ZM333.27,65.56a4.22,4.22,0,0,0,5,2.67c3.56-.71,6.46-13.74,6.83-15.47L338,52.11C338.79,59,333.27,65.56,333.27,65.56ZM163.35,51.43s-2.7-.2-6.39-.43l-.48,0a48.36,48.36,0,0,0-6,5.64c16.38,0,46,10.39,46,10.39l27.5,15.66s-.77-9.55-18.33-18.33S163.35,51.43,163.35,51.43Zm78.33-3c.88.57,14.61,9.47,19,19.45,4.59,10.31,6.11-1.53,6.11-1.53S262.61,56,255,48.37h-.42Q247.88,48.37,241.68,48.4Z"/><path d="M343.67,53.78C342,61,339.58,66.79,338,67.11a3,3,0,0,1-3.41-1.4c1.26-1.67,4.63-6.68,4.63-12.26v-.08l4.43.41Zm-.46,140.44-4.08.38a23.48,23.48,0,0,0-4.52-10.44,3,3,0,0,1,3.4-1.4c1.17.23,3.25,3.92,5.2,11.46Zm-77.56-10.83a64.19,64.19,0,0,1-9.36,15.05h-8.45c4.8-3.78,11.12-9.62,13.93-15.94,1.37-3.08,2.18-3.49,2.31-3.54.52.26,1.27,2.38,1.57,4.44Zm0-116.91c-.31,2.06-1,4.18-1.57,4.43-.13,0-.94-.46-2.31-3.53-3.38-7.61-11.8-14.48-16.43-17.85h9.21a62.42,62.42,0,0,1,11.1,17ZM222.11,169.56c-1.48,3.27-5.6,9.23-16.89,14.87-13.26,6.63-30.92,10.66-38.05,12.12-6-.36-9.27-.65-10.25-.74-.34-.28-1-.84-2-1.71,16.69-1.46,40.92-9.86,42-10.23l.19-.09,25-14.22Zm0-89.25-25-14.22A.66.66,0,0,0,197,66c-1.16-.4-27.18-9.42-43.83-10.37a47.09,47.09,0,0,1,3.8-3.48H157c3.31.2,5.84.39,6.23.42,1.3.22,25.2,4.46,42,12.87,11.29,5.64,15.41,11.59,16.89,14.87Z"/><path d="M388.53,54.71a9.13,9.13,0,0,0-1.8.16,3.61,3.61,0,0,0-2.87,3.85,4.84,4.84,0,0,0,0,.53.41.41,0,0,0,0,.11v.11c0,.11,0,.21,0,.32s0,.09,0,.14v0c0,.12,0,.24.07.36l0,.18.09.38,0,.08,0,.07c0,.13.07.27.11.41l0,0,0,.05c0,.15.09.29.14.45l0,.05c.05.16.11.32.17.5a26.55,26.55,0,0,0,1.32,3,56.62,56.62,0,0,1,2.79,8.23c-.62-.59-1.44-1.33-2.44-2.13-.55-.44-1.11-.88-1.68-1.29l0,0-.52-.37-.08-.06-.5-.34-.06,0-.07,0a5.72,5.72,0,0,0-.48-.32l-.08-.06-.09,0c-.15-.1-.3-.2-.46-.29l-.1-.06-.11-.08-.45-.26-.25-.15,0,0-.38-.22-.25-.13,0,0-.42-.23-.24-.12-.08,0-.41-.21-.36-.18-.39-.19-.33-.14-.06,0-.14-.07-.25-.11-.33-.13-.08,0-.09,0-.29-.11-.28-.11-.16-.07-.12,0-.24-.09-.38-.13-.11,0-.11,0-.23-.08-.44-.13-.11,0-.1,0-.19-.06-.86-.23c-9.42-2.35-48.64-5-89.86-5-41.54,0-76,1.13-76.39,1.15h-.92l-.22,0h-.09l-.31,0a15.77,15.77,0,0,0-2.21.45l-.5.14,0,0c-.16,0-.33.1-.51.16l-.06,0-.53.18-.06,0-.58.23a21.35,21.35,0,0,0-4,2.12c-.22.14-.44.3-.66.46l-.07,0-.63.47-.05,0-.06,0-.6.49a.65.65,0,0,0-.12.11q-.31.25-.63.54l-.05,0,0,0c-.21.2-.43.4-.67.64a28.62,28.62,0,0,0-2.82,3.23,34.92,34.92,0,0,0-2.38,3.63c-8.95,15.66-12.62,30-12.67,49.53v.38c0,19.52,3.72,33.87,12.67,49.53.39.69.82,1.38,1.3,2.1.23.34.46.68.7,1l0,0,.69.93,0,0c.23.3.47.59.69.85l0,.06.72.81,0,0c.24.27.48.52.74.79a21.9,21.9,0,0,0,11.27,6.32l.45.08.42.07.34,0h.05l.28,0h0l.24,0h0l.25,0h.4c.34,0,34.85,1.15,76.39,1.15,41.22,0,80.44-2.63,89.86-5,.33-.08.65-.17,1-.27l.2-.06.11,0,.65-.21.24-.08.11,0,.59-.22.34-.13.62-.25.06,0,.23-.09.87-.39.05,0,.8-.39.16-.09.12-.06.55-.29.19-.1.12-.07.51-.29.29-.17.54-.33.1-.06.12-.07c.49-.31,1-.63,1.45-1l.11-.07.07-.05.51-.36.19-.14.48-.36.08-.06.08-.06.53-.4,0,0,0,0,1.15-.94c.65-.55,1.2-1,1.65-1.48a55.89,55.89,0,0,1-2.77,8.15c-.12.23-.5.95-.91,1.92l-.2.5,0,.06c-.07.18-.14.36-.21.56-.15.41-.28.8-.39,1.18l0,.17c0,.14-.07.28-.11.41s0,.15-.05.22-.05.26-.08.42l0,.18c0,.14,0,.27-.06.4v.07l0,.13c0,.21,0,.4,0,.58a3.61,3.61,0,0,0,2.87,3.84,9.83,9.83,0,0,0,2,.16h.09a6,6,0,0,0,.78-.08l16.72-1.7c.22,0,.44.05.68.06h.72l.22,0H408l.41,0,.32-.05.36-.08.33-.09.33-.1.34-.13.29-.13h0l.31-.16.18-.09.06,0,0,0,.33-.19.08,0a9.36,9.36,0,0,0,1.48-1.26l0,0,.06-.05.41-.47.05-.06.06-.07.38-.49L414,188l.37-.54a1.4,1.4,0,0,0,.1-.16c.13-.19.26-.4.38-.6l.06-.12a25.26,25.26,0,0,0,1.23-2.44c2.74-6.34,6.82-29.75,6.85-59.88V124h0c0-30.13-4.11-53.54-6.85-59.88-.33-.76-.68-1.46-1.07-2.17A14.91,14.91,0,0,0,413,59l0,0-.05-.05-.39-.38-.12-.11-.38-.33-.1-.07,0,0-.4-.29-.07,0,0,0a6.22,6.22,0,0,0-.82-.46l-.05,0-.11-.05-.24-.1L410,57l0,0-.25-.1-.3-.09a2.14,2.14,0,0,0-.34-.09l-.29-.07-.38-.06h-.06l-.21,0-.44,0h-.23c-.24,0-.46,0-.68,0h.08l-17.24-1.64a7.41,7.41,0,0,0-1-.09h-.1Z"/><path class="cls-20" d="M207.65,61.74s-10.7-.38-18.33,13-12.54,27.33-12.6,49.26h0v.38h0c.06,21.93,5,36,12.6,49.26s18.33,13,18.33,13S242,187.75,284,187.75s80.57-2.67,89.73-5,16-9.92,16-9.92l13-12.22-4.6-36.47,4.6-36.47-13-12.22s-6.87-7.63-16-9.92-47.73-5-89.73-5S207.65,61.74,207.65,61.74Z"/><path class="cls-23" d="M389.79,172.86l13-12.22-4.6-36.47,4.6-36.47-13-12.22A35.7,35.7,0,0,0,386,72l-.06,0s-12.22-1.91-12.22,52.31c0,46,8.79,51.87,11.46,52.6A38,38,0,0,0,389.79,172.86Z"/><path class="cls-24" d="M207.65,186.6S242,187.75,284,187.75s80.57-2.67,89.73-5a33.7,33.7,0,0,0,13-7.1H190.6C198.09,186.94,207.65,186.6,207.65,186.6Z"/><path class="cls-25" d="M284,60.59c-42,0-76.37,1.15-76.37,1.15s-8.68-.31-16,9.41H384.9a31.87,31.87,0,0,0-11.15-5.59C364.59,63.27,326,60.59,284,60.59Z"/><path class="cls-26" d="M380.75,78.83c-1.94,3.34-2.16,8-2.58,11.7a300.18,300.18,0,0,0-1.36,33.26h0v.34h0a310,310,0,0,0,1.36,33.25c.42,3.82.72,8.26,2.58,11.7s7.34,3.82,10.57,2.2c.44-.22.05-.88-.39-.66a8.72,8.72,0,0,1-6.07.53,5.79,5.79,0,0,1-4.18-4.23c-1.38-4.15-1.71-8.71-2.08-13-.87-9.93-1-19.94-1-29.91s.19-20,1-29.94a59.21,59.21,0,0,1,2.08-13c1.34-4.26,6.37-5.65,10.25-3.69.44.22.83-.44.39-.66C388,75,382.78,75.35,380.75,78.83Z"/><path class="cls-20" d="M389.58,55.35a6.39,6.39,0,0,0-1-.09h-.07a8.39,8.39,0,0,0-1.69.16,3,3,0,0,0-2.42,3.31c0,2.49,1.77,5.93,2.1,6.56,7.21,16.36,7.67,48.15,7.67,48.45v20.8c0,.32-.46,32.11-7.67,48.47-.33.63-2.1,4.07-2.1,6.57a3.06,3.06,0,0,0,2.42,3.31,8.16,8.16,0,0,0,1.82.14h.11a6.31,6.31,0,0,0,.76-.08l16.78-1.7c4,.5,7-1.82,9.33-7.28,2.73-6.29,6.78-29.61,6.81-59.66V124h0c0-30-4.08-53.37-6.81-59.66-2.26-5.21-5.07-7.56-8.79-7.33h0Zm22.92,47.1-2.41-19.34A183.49,183.49,0,0,1,412.5,102.45Z"/><path class="cls-27" d="M412.32,162.42l-20.4-.6c-.4,2.64-.86,5.28-1.4,7.86ZM393,95.49l17.72-7-.08-.67L392,87.18C392.44,90,392.77,92.83,393,95.49Z"/><path class="cls-28" d="M385.61,184.9a13.16,13.16,0,0,0-1.2,4.67,3.06,3.06,0,0,0,2.42,3.31,8.16,8.16,0,0,0,1.82.14h.11a6.31,6.31,0,0,0,.76-.08l16.78-1.7c3.54.45,6.29-1.35,8.52-5.58l-8-3.07Z"/><path class="cls-29" d="M406.84,57h0l-17.26-1.63a6.39,6.39,0,0,0-1-.09h-.07a8.39,8.39,0,0,0-1.69.16,3,3,0,0,0-2.42,3.31,12.08,12.08,0,0,0,1,4.13l21.39,2.33,7.81-3C412.52,58.48,410,56.8,406.84,57Z"/><path class="cls-30" d="M406,58.62c-3.06.58.76,7.45.76,7.45,7.45,16.42,7.83,47.92,7.83,47.92v20.3s-.38,31.5-7.83,47.92c0,0-3.82,6.87-.76,7.45s5.73-.58,8.21-6.3,6.65-28.29,6.68-59.06h0V124h0c0-30.77-4.21-53.35-6.68-59.06S409.07,58.05,406,58.62Z"/><rect class="cls-19" x="378.91" y="160.06" width="37.61" height="2.67"/><rect class="cls-19" x="378.91" y="85.41" width="37.61" height="2.67"/><path class="cls-31" d="M359.24,170.18s-140.14,3.06-146.63,2.68C212.61,172.86,260.72,167.89,359.24,170.18Z"/><path class="cls-32" d="M359.24,77.59S219.1,74.53,212.61,74.91C212.61,74.91,260.72,79.88,359.24,77.59Z"/><path class="cls-13" d="M361.3,172.93a2.09,2.09,0,0,1,2.13,2.07h0a2.1,2.1,0,0,1-2.07,2.13l-149.67,2.15a2.11,2.11,0,0,1-2.13-2.08h0a2.1,2.1,0,0,1,2.07-2.12Z"/><path class="cls-1" d="M362.29,175v0a1,1,0,0,1-.94.95l-149.67,2.15a.94.94,0,0,1-.68-.27,1,1,0,0,1,.65-1.64l149.67-2.15a1,1,0,0,1,1,.94Z"/><path class="cls-13" d="M361.3,75A2.09,2.09,0,0,0,363.43,73h0a2.1,2.1,0,0,0-2.07-2.13L211.69,68.68a2.11,2.11,0,0,0-2.13,2.07h0a2.1,2.1,0,0,0,2.07,2.13Z"/><path class="cls-1" d="M362.29,72.94h0a1,1,0,0,0-.94-1L211.68,69.83a1,1,0,0,0-1,.94,1,1,0,0,0,.94,1l149.67,2.14a.92.92,0,0,0,.68-.27,1,1,0,0,0,.29-.67Z"/><polygon class="cls-33" points="246.85 141.03 246.85 106.67 228.01 106.67 228.01 136.96 246.85 141.03"/><path class="cls-20" d="M193.9,111.38l1.69,12.79L193.9,137l-4.58,21s14.89-2.67,34.75-6.87,26.15-9.55,26.15-9.55-9.73-2.1-15.08-5.72c-4.34-2.95-4.4-9-4.27-11.22l.07,0s0-.13,0-.38,0-.38,0-.38l-.07-.05c-.13-2.19-.07-8.27,4.27-11.22,5.35-3.62,15.08-5.72,15.08-5.72s-6.3-5.35-26.15-9.55-34.75-6.87-34.75-6.87Z"/><path class="cls-14" d="M250.22,141.54l-.12,0,.08.06Zm-56.17-5.67L193.9,137l-2.64,12.11,2.45-.08c27.85-.66,48.44-6.58,53.56-8.19-3.31-.91-8.65-2.62-12.13-5a8.49,8.49,0,0,1-2.4-2.5c-5.07.59-22.43,2.5-35,2.5C196.46,135.82,195.23,135.83,194.05,135.87Zm-.15-24.49.22,1.65c1.16,0,2.36,0,3.6,0,12.34,0,29.28,1.84,34.71,2.47a8.76,8.76,0,0,1,2.71-3c3.17-2.14,7.87-3.76,11.19-4.71a205,205,0,0,0-52.62-7.9l-2.33-.08Z"/><path class="cls-27" d="M193.71,149l-2.45.08L189.32,158s14.89-2.67,34.75-6.87c19-4,25.58-9.08,26.11-9.51l-.08-.06-1.6-1.12s-.42.15-1.23.4C242.15,142.41,221.56,148.33,193.71,149Zm-2.33-49.16,2.33.08a205,205,0,0,1,52.62,7.9c2.27-.66,3.89-1,3.89-1s-6.3-5.35-26.15-9.55-34.75-6.87-34.75-6.87Z"/><path class="cls-20" d="M200.14,124.23c0,29.59-9.68,33.33-10.79,33.66a1.9,1.9,0,0,1-2-.64c-6.26-7.78-7.2-21-7.2-28.18V119.4c0-7.19.94-20.4,7.2-28.18a1.9,1.9,0,0,1,2-.64C190.46,90.91,200.14,94.64,200.14,124.23Z"/><path class="cls-34" d="M188.81,92.41c-8.4,10.44-6.62,31.82-6.62,31.82h0s-1.78,21.39,6.62,31.82c0,0,4.92-1.46,7.65-13.22-1.45-4.54-2.37-11.25-2.37-18.75a66,66,0,0,1,2.32-18.63C193.68,93.86,188.81,92.41,188.81,92.41Z"/><path d="M196.46,142.83a83.62,83.62,0,0,0,1.77-18.6h0a82.56,82.56,0,0,0-1.82-18.78,66,66,0,0,0-2.32,18.63C194.09,131.58,195,138.29,196.46,142.83Z"/><path class="cls-15" d="M68.46,48.69s6.3-5.73,28.45-6.87,34.56,0,34.56,0,9.54,4.77,13.93,9.35c0,0-7.44,5.73-10.31,9.36,0,0-6.87,2.1-27.87,4.2s-51,8-51,8L64.45,60Z"/><path class="cls-35" d="M115.05,57.47s-40.67,2.3-41,1.72-3.25-5.34,5.15-10.31C86.34,44.64,125,44.3,136,44.29a47.29,47.29,0,0,1,9.43,6.88A104.75,104.75,0,0,0,137,58.45c-3.24.33-6,.55-6.47.55C129.56,59,115.05,57.47,115.05,57.47Z"/><path class="cls-36" d="M135.09,60.53s-6.87,2.1-27.87,4.2-51,8-51,8L64.45,60l.06-.18c3.07-2.17,6.52-3,14.07-5.3,18.58-5.6,66.82-3.31,66.82-3.31S138,56.9,135.09,60.53Z"/><path class="cls-37" d="M68.32,57.75c2.42-1,5.54-1.84,10.26-3.27,18.58-5.6,66.82-3.31,66.82-3.31l-1.29,1c-5.34,0-62.38.37-70.87,7.89C65.87,66.61,67.2,60.6,68.32,57.75Z"/><path class="cls-15" d="M68.46,199.78s6.3,5.72,28.45,6.87,34.56,0,34.56,0,9.54-4.77,13.93-9.36c0,0-7.44-5.72-10.31-9.35,0,0-6.87-2.1-27.87-4.2s-51-8-51-8l8.21,12.79Z"/><path class="cls-35" d="M115.05,191s-40.67-2.29-41-1.71-3.25,5.34,5.15,10.31c7.19,4.24,45.81,4.58,56.82,4.58a46.51,46.51,0,0,0,9.43-6.88A103.66,103.66,0,0,1,137,190c-3.24-.33-6-.55-6.47-.55C129.56,189.47,115.05,191,115.05,191Z"/><path class="cls-38" d="M135.09,187.94s-6.87-2.1-27.87-4.2-51-8-51-8l8.21,12.79.06.18c3.07,2.17,6.52,3,14.07,5.3,18.58,5.6,66.82,3.3,66.82,3.3S138,191.57,135.09,187.94Z"/><path class="cls-39" d="M68.32,190.72c2.42,1,5.54,1.84,10.26,3.27,18.58,5.6,66.82,3.3,66.82,3.3s-.5-.38-1.29-1c-5.34,0-62.38-.37-70.87-7.89C65.87,181.86,67.2,187.87,68.32,190.72Z"/><path class="cls-12" d="M77.09,77.58c-9.78.8-31.17,6.17-35.47,9.39a1.19,1.19,0,0,0-.41.58,140.83,140.83,0,0,0-5.14,36.68v.06A140.63,140.63,0,0,0,41.21,161a1.15,1.15,0,0,0,.41.58c4.3,3.23,25.69,8.6,35.47,9.39,3.23.26,5.65-.33,7.2-1.75a5.94,5.94,0,0,0,1.81-4.45,7.13,7.13,0,0,0-.16-1.54l-4.58-22.65a1.15,1.15,0,0,0-1.24-.91l-.14,0c-1.3,0-9.9-1-10.91-1.27a19.81,19.81,0,0,1-6.85-3.08,11.8,11.8,0,0,1-4.77-7.61,20.23,20.23,0,0,1-.27-3.24c0-6.72,3.64-11.63,10.24-13.84a31.05,31.05,0,0,1,5.65-1.27c.33,0,2.78-.19,4.39-.28l2-.12c1.08-.06,1.73-.1,1.9-1,0-.14,4.54-22.43,4.58-22.65a7.19,7.19,0,0,0,.16-1.53,5.9,5.9,0,0,0-1.81-4.45C82.74,77.91,80.32,77.32,77.09,77.58Z"/><path class="cls-15" d="M70.66,145.74A20,20,0,0,1,63,144.26C70.29,154.31,78.24,165,79.34,165.6c1.58.86,2.73,3.45,3.2,4.68a5.61,5.61,0,0,0,3.56-5.54,7.13,7.13,0,0,0-.16-1.54l-4.25-21C78.84,144.75,74.51,145.76,70.66,145.74Z"/><path class="cls-15" d="M60.44,104.5s-4.58,3.63-5.72,4.4a4.69,4.69,0,0,0-1,1.93c.28-.35.58-.69.9-1a18.65,18.65,0,0,1,10.67-5.64,22.48,22.48,0,0,1,11.67,1.7A31.72,31.72,0,0,1,81.34,108l0-.07c0-.14,4.54-22.43,4.58-22.65a7.19,7.19,0,0,0,.16-1.53,5.63,5.63,0,0,0-3.47-5.51C78,85.48,60.44,104.5,60.44,104.5Z"/><path class="cls-40" d="M76,78.72c-9.42.77-30.81,6.11-34.88,9.17a138.09,138.09,0,0,0-5.09,36.34v.06a138.21,138.21,0,0,0,5.09,36.35c4.07,3.05,25.46,8.4,34.88,9.16s7.63-6.36,7.63-6.36l-4.58-22.66c0,.23-10.36-1-11.46-1.28a21.41,21.41,0,0,1-7.23-3.27,13,13,0,0,1-5.23-8.35c-1.37-8.54,2.28-15.52,10.74-18.34a32.6,32.6,0,0,1,5.85-1.33c.69-.09,7.32-.43,7.33-.46s4.58-22.66,4.58-22.66S85.45,78,76,78.72Z"/><path class="cls-12" d="M36.07,124.23v.06a138.21,138.21,0,0,0,5.09,36.35,25.8,25.8,0,0,0,6.09,2.69A245.09,245.09,0,0,1,46,85.63a21,21,0,0,0-4.84,2.26A138.09,138.09,0,0,0,36.07,124.23Z"/><path class="cls-35" d="M46.7,87c6.68.77,17.47,4,18.71,5.64s.28,5.34.28,5.34c-5.25,2.77-21.19,3.63-21.19,3.63C43.55,96.44,46.7,87,46.7,87Z"/><path class="cls-41" d="M45.3,92.1C46,89.22,46.7,87,46.7,87c6.68.77,17.47,4,18.71,5.64.06.08.12.18.18.28C63.55,92.64,50.09,91,45.3,92.1Z"/><path class="cls-15" d="M44.5,101.6a17.48,17.48,0,0,1,0-5.06A152.53,152.53,0,0,0,66,95.67a12.46,12.46,0,0,1-.34,2.3C60.44,100.74,44.5,101.6,44.5,101.6Z"/><path class="cls-42" d="M45.07,86.9s-1.91,3.91-2.19,14.7H44.6c.28-10.79,2.19-14.7,2.19-14.7Z"/><path class="cls-35" d="M43.36,120.69a13.93,13.93,0,0,1-.67-2.86c.09-.48.47-3.82.47-3.82l.86-7.35s14.07.26,21.17,3.1a18.85,18.85,0,0,0-4.79,2.5,12.9,12.9,0,0,0-5.22,8.34C53,120.82,47.24,121.3,43.36,120.69Z"/><path class="cls-43" d="M44,106.66s14.07.26,21.17,3.1a18.85,18.85,0,0,0-4.79,2.5l-.15.11a93,93,0,0,0-16.68-1.85Z"/><path class="cls-15" d="M43.36,120.69a13.93,13.93,0,0,1-.67-2.86c0-.22.14-1,.24-1.8,4.83,1,11.57.26,14,0a12.43,12.43,0,0,0-1.74,4.62C53,120.82,47.24,121.3,43.36,120.69Z"/><path class="cls-44" d="M41.73,120.69a106.84,106.84,0,0,1,.67-14.13h1.72a106.84,106.84,0,0,0-.67,14.13Z"/><path class="cls-35" d="M46.7,161.5c6.68-.77,17.47-4,18.71-5.64s.28-5.34.28-5.34c-5.25-2.77-21.19-3.63-21.19-3.63C43.55,152.05,46.7,161.5,46.7,161.5Z"/><path class="cls-15" d="M45.3,156.39c.66,2.88,1.4,5.11,1.4,5.11,6.68-.77,17.47-4,18.71-5.64.06-.08.12-.18.18-.28C63.55,155.85,50.09,157.52,45.3,156.39Z"/><path class="cls-45" d="M44.5,146.89a17.48,17.48,0,0,0,0,5.06,152.53,152.53,0,0,1,21.52.87,12.46,12.46,0,0,0-.34-2.3C60.44,147.75,44.5,146.89,44.5,146.89Z"/><path class="cls-46" d="M45.07,161.59s-1.91-3.91-2.19-14.7H44.6c.28,10.79,2.19,14.7,2.19,14.7Z"/><path class="cls-35" d="M43.36,127.8a13.77,13.77,0,0,0-.67,2.86c.09.48.47,3.82.47,3.82l.86,7.35s14.07-.27,21.17-3.1a18.85,18.85,0,0,1-4.79-2.5,12.9,12.9,0,0,1-5.22-8.34C53,127.67,47.24,127.19,43.36,127.8Z"/><path class="cls-15" d="M44,141.83s14.07-.27,21.17-3.1a18.85,18.85,0,0,1-4.79-2.5l-.15-.11A94,94,0,0,1,43.57,138Z"/><path class="cls-47" d="M43.36,127.8a13.77,13.77,0,0,0-.67,2.86c0,.21.14,1,.24,1.8,4.83-1,11.57-.26,14,0a12.43,12.43,0,0,1-1.74-4.62C53,127.67,47.24,127.19,43.36,127.8Z"/><path class="cls-48" d="M41.73,127.8a106.84,106.84,0,0,0,.67,14.13h1.72a106.84,106.84,0,0,1-.67-14.13Z"/><path class="cls-49" d="M37.82,126.56c.48,4.2,3.15,5.63,3.15,5.63l-.67-5.73S37.34,122.36,37.82,126.56Zm0-5c-.48,4.2,2.48.09,2.48.09l.67-5.73S38.3,117.31,37.82,121.52Z"/><path class="cls-50" d="M39.16,120.47c1.24,0,2.26,1.63,2.26,3.65s-1,3.66-2.26,3.66-2.27-1.64-2.27-3.66S37.91,120.47,39.16,120.47Z"/><path class="cls-13" d="M39.16,121.5c.89,0,1.62,1.17,1.62,2.62s-.73,2.63-1.62,2.63-1.63-1.18-1.63-2.63S38.26,121.5,39.16,121.5Z"/><path class="cls-13" d="M76.39,145.94a3.54,3.54,0,0,1-2.45,3.37c-.85.41-2.33.48-5.09.35-5.51-.27-7-2.89-7-4.39a3.67,3.67,0,0,1,1.18-2.64c1.2-1.15,3.18-1.68,5.88-1.56,6.73.29,7.46,3.5,7.46,4.87Z"/><path class="cls-13" d="M73.14,147.56a1.71,1.71,0,0,0,1.34-1.62c0-1.34-1.24-2.77-5.64-3s-5.06,1.52-5.06,2.29,1.15,2.29,5.16,2.48S73.14,147.56,73.14,147.56Z"/><path d="M73.16,147.75a1.88,1.88,0,0,0,1.5-1.95,2.6,2.6,0,0,0-1.5-2.08,10.77,10.77,0,0,0-5.61-.93,4.82,4.82,0,0,0-3.49,1.27c-1.46,1.65.8,3.05,2.19,3.47a16.93,16.93,0,0,0,5.81.43c.26,0,1,0,1.23-.28s-.17-.45-.3-.24a3.37,3.37,0,0,1-.84.13,21,21,0,0,1-4.48-.13c-1.18-.15-4.35-.93-3.56-2.76a3,3,0,0,1,2.22-1.37,12.49,12.49,0,0,1,4.91.14A4.25,4.25,0,0,1,74,145a1.57,1.57,0,0,1-.89,2.4C72.88,147.43,72.92,147.81,73.16,147.75Z"/><path class="cls-50" d="M64.52,147.42a.36.36,0,1,1-.35.35A.36.36,0,0,1,64.52,147.42Z"/><path class="cls-50" d="M64.52,142.33a.36.36,0,1,1-.35.36A.36.36,0,0,1,64.52,142.33Z"/><path class="cls-50" d="M68.8,148.44a.36.36,0,1,1-.36.36A.36.36,0,0,1,68.8,148.44Z"/><path class="cls-50" d="M68.8,141.66a.36.36,0,1,1-.36.36A.36.36,0,0,1,68.8,141.66Z"/><path class="cls-50" d="M73.28,148.3a.36.36,0,1,1,0,.71.36.36,0,1,1,0-.71Z"/><path class="cls-50" d="M73.28,142.52a.36.36,0,1,1,0,.72.36.36,0,1,1,0-.72Z"/><path class="cls-15" d="M105.69,161.07a11.58,11.58,0,0,1-.39,3.22,3.42,3.42,0,0,1-1.76,2.09c-.93.47-6.22,2.59-19-1.45a3.43,3.43,0,0,1-2.06-1.78,52.46,52.46,0,0,1-4.29-21.22,3.43,3.43,0,0,1,3.47-3.44c2.27,0,13.79.38,18.13,5,3.85,4.11,5.89,12.83,5.89,17.54Z"/><path class="cls-51" d="M100.35,161.21c-.77-2.48-14.51,0-14.51,0a22.6,22.6,0,0,1-2.59,3,3.39,3.39,0,0,0,1.3.75c12.77,4,18.06,1.92,19,1.45a3.42,3.42,0,0,0,1.19-1C103.7,164.85,101,163.21,100.35,161.21Z"/><path class="cls-12" d="M79.22,139.48l0,0a28.08,28.08,0,0,0,4.35,3.75c1.71,1,5.15,4.59,5.15,4.59l7.83-1.91a16.1,16.1,0,0,1,2.84-2.84c-4.63-4.25-15.5-4.59-17.7-4.61A3.44,3.44,0,0,0,79.22,139.48Z"/><path class="cls-52" d="M85.58,161.66a49.45,49.45,0,0,1-3.94-19.73s12.09.12,15.65,3.94,5.73,14,4.71,17.44C102,163.31,97.67,165.47,85.58,161.66Z"/><path class="cls-50" d="M86.42,142.34l-1.75.86-1.75-.86.66-.33c-1.19-.08-1.94-.08-1.94-.08,0,.35,0,.69,0,1l.4-.2,1.76.87-1.76.86-.36-.18c0,.4,0,.79.07,1.18l.29-.15,1.76.87-1.75.86-.17-.08c0,.33.06.65.1,1l.07,0,1.75.87-1.6.79c.05.37.11.73.17,1.08l1.4.7-1.17.57c.11.55.22,1.08.34,1.6l.83.41-.66.32c.06.26.12.51.19.76l1.33-.66,1.75.87-1.75.86-1.21-.59.28,1,.07,0,0,0c.07.26.15.51.22.74l.69-.34,1.75.87-1.75.86-.28-.14.36,1,1.67.82-1.12.56c.17.41.29.65.31.69l1.67-.83,1.75.87-1.25.62,1.11.3,1-.5,1.75.87-.37.18c1.37.29,2.59.48,3.67.6L93.33,163l1.76-.87,1.75.87-1.64.81c.53.05,1,.09,1.49.11l1-.49,1,.5c.56,0,1-.07,1.45-.13l-1.61-.8,1.75-.87,1.77.88a4.52,4.52,0,0,0,.12-.79l-1-.51,1.08-.54c0-.47,0-1-.06-1.54l-1-.5.92-.46c0-.26-.06-.52-.1-.79l-1.68.82-1.75-.86,1.75-.87,1.66.83q-.06-.47-.15-.93l-.65-.32.54-.27c-.06-.25-.11-.51-.17-.77l-1.23.61-1.75-.86,1.75-.87,1.1.54c-.14-.57-.3-1.14-.47-1.7l-.63.31-1.75-.86,1.75-.87.21.11c-.12-.35-.25-.7-.38-1l-1.58-.78c.34-.18.69-.35,1-.52l-.33-.68-1.57.77L96,148.78l1.75-.87,1.45.72a13.89,13.89,0,0,0-1.06-1.76l-.39.19L96,146.19l1.11-.55a6.73,6.73,0,0,0-.65-.52l-1.32.65-1.73-.85,1.43-.71c-.3-.13-.61-.26-.94-.38l-1.35.66-1.75-.86.94-.47-1.17-.27-.63.31-1.36-.67c-.81-.13-1.6-.23-2.34-.31Zm-3.5,2.58,1.75-.87,1.75.87-1.75.86Zm4.36.42,1.75.87-1.75.86-1.75-.86Zm2.61,1.29,1.72.86-1.75.86-1.72-.85Zm-7,.87,1.75-.87,1.75.87-1.75.86Zm4.36.42,1.72.86-1.75.86-1.72-.85Zm2.58,5.59-1.75-.86,1.75-.87,1.75.87Zm2.61-.44,1.76.87-1.76.86-1.75-.86Zm-1.75-1.71,1.75-.87,1.76.87-1.76.86Zm-.86-.43-1.75-.86,1.75-.87,1.75.87Zm-6.94-.85,1.75-.87,1.72.86-1.75.86Zm4.33.41,1.75.87-1.75.86-1.75-.86Zm-4.36,2.16,1.75-.87,1.75.87-1.75.86Zm2.61,1.29,1.75-.87,1.75.87-1.75.86Zm4.36.42,1.75.87-1.75.86-1.75-.86Zm2.61,1.29,1.76.87-1.76.86-1.75-.86Zm-7,.87,1.75-.87,1.75.87-1.75.86Zm4.36.42,1.75.87-1.75.86-1.75-.86Zm2.61,3-1.75-.86,1.75-.87,1.76.87Zm2.62-.44,1.75.87-1.75.86-1.76-.86Zm-9.59-.42,1.75-.87,1.75.87-1.75.86Zm2.61,1.29,1.75-.87,1.75.87-1.75.86Zm4.36,2.16-1.75-.87,1.75-.87,1.76.87Zm5.23,0L96,161.68l1.75-.87,1.75.87Zm4.36-2.16-1.75.86-1.75-.86,1.75-.87Zm-2.61-1.29L97.7,160,96,159.1l1.75-.87Zm-4.36-.43-1.76-.86,1.76-.87,1.75.87Zm4.36-2.15-1.75.86L96,156.52l1.75-.87Zm-4.36-.43-1.76-.86,1.76-.87,1.75.87Zm4.36-2.15-1.75.86L96,153.94l1.75-.87Zm-4.36-.43-1.76-.86,1.76-.87,1.75.87Zm4.36-2.15-1.75.86L96,151.36l1.75-.87Zm-2.61-1.29-1.75.86-1.76-.86,1.76-.87Zm-2.61-1.29-1.76.86-1.75-.86,1.75-.87Zm2.61-1.29-1.75.86-1.76-.86,1.76-.87Zm-2.61-1.3-1.76.87-1.72-.85,1.75-.87Zm-2.59-1.27-1.75.86-1.75-.86,1.75-.87ZM89,143.63l-1.75.86-1.75-.86,1.75-.87Z"/><path class="cls-53" d="M51.39,174.83a.57.57,0,0,0-.41.29.54.54,0,0,0-.06.25.5.5,0,0,0,.06.24s.37.72,1,1.91c2.08,3.86,7.5,13.48,12.79,19.6a13.86,13.86,0,0,0,13.14,4.73,15.6,15.6,0,0,0,3.72-1,.55.55,0,0,0,.32-.49v0c-.32-5.39-5.42-9.66-12.49-15.57-1.2-1-2.46-2.06-3.75-3.17a31.9,31.9,0,0,0-9.23-5.79A11.34,11.34,0,0,0,51.39,174.83Z"/><path class="cls-14" d="M65.38,182a31,31,0,0,0-9.07-5.69c2.63,6.71,17.32,17.8,20.3,19.95a33,33,0,0,1,4.82,4.11C81.07,194.27,74.11,189.46,65.38,182Z"/><path class="cls-1" d="M77.86,201.23l0,.08a15.48,15.48,0,0,0,3.59-1,33,33,0,0,0-4.82-4.11c-3-2.15-17.67-13.24-20.3-19.95a10.78,10.78,0,0,0-4.85-.91s.37.71,1,1.9C67,200.52,77.86,201.23,77.86,201.23Z"/><path class="cls-14" d="M77.84,201.31l0-.08s-10.91-.71-25.39-24c2.17,4,7.5,13.45,12.73,19.5A13.36,13.36,0,0,0,77.84,201.31Z"/><path class="cls-13" d="M77,196.23S65.73,188,61.1,183a21.83,21.83,0,0,0-4.28-2.14s4.45,9.81,8.38,13.91S77.86,201.41,77,196.23Z"/><path class="cls-54" d="M70.56,192.46c2.3,1.42,3.65,3.42,3,4.47s-3,.75-5.35-.67-3.65-3.42-3-4.46S68.25,191.05,70.56,192.46Z"/><path class="cls-1" d="M63.64,187.1c.89,1,1.28,2,.86,2.45s-1.49,0-2.39-1-1.28-2-.86-2.45S62.74,186.16,63.64,187.1Z"/><path class="cls-13" d="M76.39,102.06a3.55,3.55,0,0,0-2.45-3.38c-.85-.4-2.33-.47-5.09-.34-5.51.26-7,2.88-7,4.39a3.71,3.71,0,0,0,1.18,2.64c1.2,1.15,3.18,1.68,5.88,1.56,6.73-.29,7.46-3.5,7.46-4.87Z"/><path class="cls-13" d="M73.14,100.44a1.71,1.71,0,0,1,1.34,1.62c0,1.34-1.24,2.77-5.64,3s-5.06-1.53-5.06-2.29,1.15-2.29,5.16-2.48S73.14,100.44,73.14,100.44Z"/><path d="M73.16,100.25a1.88,1.88,0,0,1,1.5,1.94,2.62,2.62,0,0,1-1.5,2.09,10.77,10.77,0,0,1-5.61.93,4.82,4.82,0,0,1-3.49-1.27c-1.46-1.65.8-3,2.19-3.47a17.18,17.18,0,0,1,5.81-.44c.26,0,1,0,1.23.29s-.17.45-.3.24a3.83,3.83,0,0,0-.84-.14,21.65,21.65,0,0,0-4.48.14c-1.18.15-4.35.93-3.56,2.76a2.93,2.93,0,0,0,2.22,1.36,12.49,12.49,0,0,0,4.91-.13A4.22,4.22,0,0,0,74,103a1.56,1.56,0,0,0-.89-2.39C72.88,100.57,72.92,100.19,73.16,100.25Z"/><path class="cls-50" d="M64.52,100.58a.36.36,0,1,0,0-.71.36.36,0,0,0,0,.71Z"/><path class="cls-50" d="M64.52,105.67a.36.36,0,1,0-.35-.36A.36.36,0,0,0,64.52,105.67Z"/><path class="cls-50" d="M68.8,99.56a.36.36,0,1,0-.36-.36A.36.36,0,0,0,68.8,99.56Z"/><path class="cls-50" d="M68.8,106.33a.36.36,0,0,0,0-.71.36.36,0,1,0,0,.71Z"/><path class="cls-50" d="M73.28,99.7a.36.36,0,0,0,0-.72.36.36,0,0,0,0,.72Z"/><path class="cls-50" d="M73.28,105.47a.36.36,0,1,0,0-.71.36.36,0,1,0,0,.71Z"/><path class="cls-15" d="M105.69,86.93a11.58,11.58,0,0,0-.39-3.22,3.47,3.47,0,0,0-1.76-2.1c-.93-.46-6.22-2.58-19,1.45a3.46,3.46,0,0,0-2.06,1.78,52.6,52.6,0,0,0-4.29,21.23,3.45,3.45,0,0,0,3.47,3.44c2.27,0,13.79-.38,18.13-5,3.85-4.12,5.89-12.83,5.89-17.54Z"/><path class="cls-55" d="M100.35,86.79c-.77,2.48-14.51,0-14.51,0a21.92,21.92,0,0,0-2.59-3,3.54,3.54,0,0,1,1.3-.76c12.77-4,18.06-1.91,19-1.45a3.57,3.57,0,0,1,1.19,1C103.7,83.15,101,84.78,100.35,86.79Z"/><path class="cls-12" d="M79.22,108.51a0,0,0,0,1,0,0,28.18,28.18,0,0,1,4.35-3.76c1.71-1,5.15-4.58,5.15-4.58l7.83,1.91a16.1,16.1,0,0,0,2.84,2.84c-4.63,4.25-15.5,4.58-17.7,4.61A3.41,3.41,0,0,1,79.22,108.51Z"/><path class="cls-52" d="M85.58,86.34a49.45,49.45,0,0,0-3.94,19.73s12.09-.13,15.65-3.95,5.73-14,4.71-17.43C102,84.69,97.67,82.52,85.58,86.34Z"/><path class="cls-50" d="M86.19,105.77c.74-.07,1.53-.18,2.34-.3l1.36-.67.63.31,1.17-.28-.94-.46,1.75-.87,1.35.67c.33-.12.64-.25.94-.38l-1.43-.71,1.73-.85,1.32.65a6.81,6.81,0,0,0,.65-.53L96,101.8l1.75-.86.39.19a15.47,15.47,0,0,0,1.06-1.76l-1.45.72L96,99.22l1.75-.86,1.57.77q.17-.33.33-.69l-1-.51,1.58-.78c.13-.34.26-.69.38-1l-.21.11-1.75-.87,1.75-.86.63.31c.17-.57.33-1.14.47-1.71-.37.18-.74.36-1.1.55l-1.75-.87,1.75-.87,1.23.61c.06-.25.11-.51.17-.77l-.54-.26.65-.32q.09-.47.15-.93l-1.66.82-1.75-.86,1.75-.87,1.68.83c0-.27.07-.53.1-.8l-.92-.45,1-.51c0-.54.06-1.06.06-1.54l-1.08-.53,1-.51a4.52,4.52,0,0,0-.12-.79l-1.77.87L98.56,85l1.61-.8a13.21,13.21,0,0,0-1.45-.13l-1,.5-1-.49c-.46,0-1,.06-1.49.11l1.64.81-1.75.86L93.33,85l1.58-.78c-1.08.12-2.3.31-3.67.59l.37.19-1.75.86-1-.49-1.11.3,1.25.62-1.75.86-1.67-.82s-.14.28-.31.69l1.12.56-1.67.82-.36,1,.28-.14,1.75.87-1.75.86L84,90.71c-.07.24-.15.49-.22.74l0,0-.07,0c-.09.32-.18.65-.28,1l1.21-.6,1.75.87-1.75.87L83.31,93c-.07.24-.13.5-.19.75l.66.33-.83.41c-.12.51-.23,1-.34,1.59l1.17.58-1.4.69c-.06.36-.12.72-.17,1.09l1.6.79-1.75.86L82,100c0,.32-.07.64-.1,1l.17-.09,1.75.87-1.76.86-.29-.14c0,.39-.05.78-.07,1.17l.36-.18,1.76.87-1.76.87-.4-.21c0,.35,0,.69,0,1,0,0,.75,0,1.94-.08l-.66-.33,1.75-.86,1.75.86Zm-1.52-3.56,1.75.87-1.75.87-1.75-.87Zm.86-.42,1.75-.87,1.75.87-1.75.86Zm2.61-1.29,1.72-.85,1.75.86-1.72.85Zm-3.47-.87,1.75.87-1.75.86-1.75-.86Zm.86-.42,1.72-.85,1.75.86-1.72.85Zm6.08-3.86-1.75.87-1.75-.87,1.75-.86Zm-.89-1.29,1.75-.86,1.76.86-1.76.87Zm1.75,1.72,1.76.86-1.76.87-1.75-.87Zm-.86,2.15-1.75.87-1.75-.87,1.75-.86Zm-7-.86,1.75.86-1.72.85-1.75-.86Zm.86-.43,1.75-.86,1.75.86-1.75.87Zm-.86-2.15,1.75.86-1.75.87-1.75-.87Zm2.61-1.29,1.75.86-1.75.87-1.75-.87Zm.86-.43,1.75-.87,1.75.87-1.75.87Zm2.61-1.29,1.75-.87,1.76.87-1.76.86Zm-3.47-.87,1.75.87-1.75.86-1.75-.86Zm.86-.42,1.75-.87,1.75.87-1.75.86Zm6.12-1.29-1.76.86-1.75-.86L92.47,88Zm-.9-1.29,1.76-.87,1.75.87-1.75.86ZM87.25,88,89,88.9l-1.75.86L85.5,88.9Zm2.61-1.29,1.75.87-1.75.86-1.75-.86Zm4.37-.42-1.76.86-1.75-.86,1.75-.87Zm5.22,0-1.75.86L96,86.32l1.75-.87Zm.86,2.15-1.75-.86,1.75-.87,1.75.87ZM97.7,89.76,96,88.9,97.7,88l1.75.87Zm-.86.43-1.75.86-1.76-.86,1.76-.87Zm.86,2.15L96,91.48l1.75-.87,1.75.87Zm-.86.43-1.75.87-1.76-.87,1.76-.87Zm.86,2.16L96,94.06l1.75-.86,1.75.86Zm-.86.42-1.75.87-1.76-.87,1.76-.86Zm.86,2.16L96,96.64l1.75-.86,1.75.86ZM95.09,98.8l-1.76-.87,1.76-.86,1.75.86Zm-2.62,1.29-1.75-.87,1.75-.86,1.76.86Zm2.62,1.29-1.76-.87,1.76-.86,1.75.86Zm-2.59,1.27-1.75-.86,1.72-.85,1.76.86ZM89.89,104l-1.75-.87,1.75-.87,1.75.87Zm-2.61,1.29-1.75-.87,1.75-.87,1.75.87Z"/><path class="cls-53" d="M51.39,73.17a.54.54,0,0,1-.47-.54.54.54,0,0,1,.06-.25s.37-.71,1-1.91c2.08-3.85,7.5-13.47,12.79-19.6a13.88,13.88,0,0,1,13.14-4.72,15.6,15.6,0,0,1,3.72,1,.54.54,0,0,1,.32.49v0c-.32,5.4-5.42,9.67-12.49,15.58-1.2,1-2.46,2.06-3.75,3.17a31.85,31.85,0,0,1-9.23,5.78A11.28,11.28,0,0,1,51.39,73.17Z"/><path class="cls-14" d="M65.38,66a31,31,0,0,1-9.07,5.69c2.63-6.71,17.32-17.8,20.3-20a33.43,33.43,0,0,0,4.82-4.1C81.07,53.73,74.11,58.54,65.38,66Z"/><path class="cls-1" d="M77.86,46.77l0-.09a15.16,15.16,0,0,1,3.59,1,33.43,33.43,0,0,1-4.82,4.1c-3,2.16-17.67,13.25-20.3,20a11,11,0,0,1-4.85.91s.37-.71,1-1.9C67,47.48,77.86,46.77,77.86,46.77Z"/><path class="cls-14" d="M77.84,46.68l0,.09s-10.91.71-25.39,24c2.17-4,7.5-13.45,12.73-19.5A13.37,13.37,0,0,1,77.84,46.68Z"/><path class="cls-13" d="M77,51.76S65.73,60,61.1,65a21.83,21.83,0,0,1-4.28,2.14s4.45-9.81,8.38-13.91S77.86,46.59,77,51.76Z"/><path class="cls-54" d="M70.56,55.54c2.3-1.42,3.65-3.42,3-4.47s-3-.75-5.35.67-3.65,3.41-3,4.46S68.25,57,70.56,55.54Z"/><path class="cls-1" d="M63.64,60.89c.89-.94,1.28-2,.86-2.44s-1.49,0-2.39,1-1.28,2-.86,2.45S62.74,61.84,63.64,60.89Z"/></g></svg>